<?xml version="1.0" encoding="utf-8"?>
<!-- Generator: Adobe Illustrator 23.0.3, SVG Export Plug-In . SVG Version: 6.00 Build 0)  -->
<svg version="1.1" id="Capa_1" xmlns="http://www.w3.org/2000/svg" xmlns:xlink="http://www.w3.org/1999/xlink" x="0px" y="0px"
	 viewBox="0 0 26.018 32.056" style="enable-background:new 0 0 26.018 32.056;" xml:space="preserve">
<style type="text/css">
	.st0{fill:url(#SVGID_1_);}
	.st1{fill:#EBEBEB;}
	.st2{fill:#D8D8D8;}
	.st3{fill:#C4C4C4;}
	.st4{fill:#00ABFF;}
	.st5{fill:url(#SVGID_2_);}
	.st6{fill:url(#SVGID_3_);}
	.st7{fill:none;stroke:#3E3E3D;stroke-miterlimit:10;}
	.st8{fill:#222221;}
	.st9{fill:#C0CBD2;}
	.st10{fill:#F5F5F5;}
	.st11{opacity:0.29;}
	.st12{fill:none;stroke:#0060DF;stroke-width:1.9166;stroke-linecap:round;stroke-miterlimit:10;}
	.st13{fill:#BAC5CC;}
	.st14{opacity:0.37;}
	.st15{fill:none;stroke:#0060DF;stroke-width:0.7384;stroke-linecap:round;stroke-linejoin:round;stroke-miterlimit:10;}
	.st16{opacity:0.3;}
	.st17{fill:none;stroke:#0060DF;stroke-width:0.8146;stroke-linecap:round;stroke-linejoin:round;stroke-miterlimit:10;}
	.st18{fill:none;stroke:#0060DF;stroke-width:0.8289;stroke-linecap:round;stroke-miterlimit:10;}
	.st19{fill:none;stroke:#0060DF;stroke-width:0.7828;stroke-linecap:round;stroke-miterlimit:10;}
	.st20{fill:none;stroke:#0060DF;stroke-width:0.6002;stroke-linecap:round;stroke-miterlimit:10;}
	.st21{fill:#A0BF38;}
	.st22{fill:#E6B041;}
	.st23{fill:none;stroke:#C6362E;stroke-width:0.7384;stroke-linecap:round;stroke-linejoin:round;stroke-miterlimit:10;}
	.st24{fill:none;stroke:#386639;stroke-width:0.8146;stroke-linecap:round;stroke-linejoin:round;stroke-miterlimit:10;}
</style>
<image style="display:none;overflow:visible;" width="1683" height="928" xlink:href="A7454EB74D24A90C.png"  transform="matrix(0.9919 0 0 0.9919 -1011.0856 -46.1825)">
</image>
<g>
	<path class="st4" d="M8.126,32.143l16.121-4.909c1.318-0.401,2.063-1.798,1.662-3.116L19.167,1.971
		c-0.401-1.321-1.801-2.067-3.122-1.666L6.006,3.361C5.372,3.554,4.842,3.989,4.527,4.575l-4.231,7.907
		c-0.314,0.586-0.382,1.273-0.187,1.908l4.898,16.083c0.395,1.319,1.785,2.069,3.104,1.673C8.117,32.146,8.122,32.145,8.126,32.143z
		"/>
	<g class="st11">
		
			<image style="overflow:visible;opacity:0.85;" width="79" height="60" xlink:href="A7454EB74D24A90D.png"  transform="matrix(0.24 0 0 0.24 3.5228 11.1011)">
		</image>
		<g>
			<g>
				<line class="st19" x1="18.46" y1="11.751" x2="4.51" y2="15.895"/>
				<line class="st19" x1="19.611" y1="15.626" x2="5.661" y2="19.77"/>
				<line class="st19" x1="20.762" y1="19.501" x2="6.812" y2="23.645"/>
			</g>
		</g>
	</g>
</g>
</svg>
