<?xml version="1.0" encoding="utf-8"?>
<!-- Generator: Adobe Illustrator 23.0.3, SVG Export Plug-In . SVG Version: 6.00 Build 0)  -->
<svg version="1.1" id="Capa_1" xmlns="http://www.w3.org/2000/svg" xmlns:xlink="http://www.w3.org/1999/xlink" x="0px" y="0px"
	 viewBox="0 0 49.713 33.998" style="enable-background:new 0 0 49.713 33.998;" xml:space="preserve">
<style type="text/css">
	.st0{fill:url(#SVGID_1_);}
	.st1{fill:#EBEBEB;}
	.st2{fill:#D8D8D8;}
	.st3{fill:#C4C4C4;}
	.st4{fill:#00ABFF;}
	.st5{fill:url(#SVGID_2_);}
	.st6{fill:url(#SVGID_3_);}
	.st7{fill:none;stroke:#3E3E3D;stroke-miterlimit:10;}
	.st8{fill:#222221;}
	.st9{fill:#C0CBD2;}
	.st10{fill:#F5F5F5;}
	.st11{opacity:0.29;}
	.st12{fill:none;stroke:#0060DF;stroke-width:1.9166;stroke-linecap:round;stroke-miterlimit:10;}
	.st13{fill:#BAC5CC;}
	.st14{opacity:0.37;}
	.st15{fill:none;stroke:#0060DF;stroke-width:0.7384;stroke-linecap:round;stroke-linejoin:round;stroke-miterlimit:10;}
	.st16{opacity:0.3;}
	.st17{fill:none;stroke:#0060DF;stroke-width:0.8146;stroke-linecap:round;stroke-linejoin:round;stroke-miterlimit:10;}
	.st18{fill:none;stroke:#0060DF;stroke-width:0.8289;stroke-linecap:round;stroke-miterlimit:10;}
	.st19{fill:none;stroke:#0060DF;stroke-width:0.7828;stroke-linecap:round;stroke-miterlimit:10;}
	.st20{fill:none;stroke:#0060DF;stroke-width:0.6002;stroke-linecap:round;stroke-miterlimit:10;}
	.st21{fill:#A0BF38;}
	.st22{fill:#E6B041;}
	.st23{fill:none;stroke:#C6362E;stroke-width:0.7384;stroke-linecap:round;stroke-linejoin:round;stroke-miterlimit:10;}
	.st24{fill:none;stroke:#386639;stroke-width:0.8146;stroke-linecap:round;stroke-linejoin:round;stroke-miterlimit:10;}
</style>
<image style="display:none;overflow:visible;" width="1683" height="928" xlink:href="C089FD1F746248B4.png"  transform="matrix(0.9919 0 0 0.9919 -1009.6367 -5.0706)">
</image>
<polygon class="st1" points="48.6,12.517 37.59,16.401 1.449,8.967 "/>
<polygon class="st9" points="48.6,12.517 39.335,17.949 39.136,20.799 37.491,17.821 1.449,8.967 37.59,16.401 "/>
<g>
	<path class="st4" d="M28.475,25.315l12.361-3.764c1.01-0.308,1.582-1.379,1.274-2.389l-5.17-16.982
		c-0.308-1.013-1.381-1.585-2.394-1.277l-7.698,2.344c-0.487,0.147-0.893,0.482-1.134,0.931l-3.244,6.063
		c-0.241,0.449-0.293,0.976-0.143,1.463l3.756,12.332c0.303,1.012,1.369,1.586,2.38,1.283
		C28.467,25.317,28.471,25.316,28.475,25.315z"/>
	<g class="st11">
		
			<image style="overflow:visible;opacity:0.85;" width="61" height="47" xlink:href="C089FD1F746248B5.png"  transform="matrix(0.24 0 0 0.24 24.83 8.9944)">
		</image>
		<g>
			<g>
				<line class="st20" x1="36.398" y1="9.678" x2="25.702" y2="12.855"/>
				<line class="st20" x1="37.281" y1="12.65" x2="26.584" y2="15.827"/>
				<line class="st20" x1="38.163" y1="15.621" x2="27.467" y2="18.798"/>
			</g>
		</g>
	</g>
</g>
<polygon class="st13" points="37.775,28.375 37.468,32.79 1.449,8.967 "/>
<polygon class="st1" points="1.449,8.967 45.645,32.579 37.491,17.821 "/>
</svg>
