<?xml version="1.0" encoding="utf-8"?>
<!-- Generator: Adobe Illustrator 23.0.3, SVG Export Plug-In . SVG Version: 6.00 Build 0)  -->
<svg version="1.1" id="Capa_1" xmlns="http://www.w3.org/2000/svg" xmlns:xlink="http://www.w3.org/1999/xlink" x="0px" y="0px"
	 viewBox="0 0 23.144 29.813" style="enable-background:new 0 0 23.144 29.813;" xml:space="preserve">
<style type="text/css">
	.st0{fill:url(#SVGID_1_);}
	.st1{fill:#EBEBEB;}
	.st2{fill:#D8D8D8;}
	.st3{fill:#C4C4C4;}
	.st4{fill:#00ABFF;}
	.st5{fill:url(#SVGID_2_);}
	.st6{fill:url(#SVGID_3_);}
	.st7{fill:none;stroke:#3E3E3D;stroke-miterlimit:10;}
	.st8{fill:#222221;}
	.st9{fill:#C0CBD2;}
	.st10{fill:#F5F5F5;}
	.st11{opacity:0.29;}
	.st12{fill:none;stroke:#0060DF;stroke-width:1.9166;stroke-linecap:round;stroke-miterlimit:10;}
	.st13{fill:#BAC5CC;}
	.st14{opacity:0.37;}
	.st15{fill:none;stroke:#0060DF;stroke-width:0.7384;stroke-linecap:round;stroke-linejoin:round;stroke-miterlimit:10;}
	.st16{opacity:0.3;}
	.st17{fill:none;stroke:#0060DF;stroke-width:0.8146;stroke-linecap:round;stroke-linejoin:round;stroke-miterlimit:10;}
	.st18{fill:none;stroke:#0060DF;stroke-width:0.8289;stroke-linecap:round;stroke-miterlimit:10;}
	.st19{fill:none;stroke:#0060DF;stroke-width:0.7828;stroke-linecap:round;stroke-miterlimit:10;}
	.st20{fill:none;stroke:#0060DF;stroke-width:0.6002;stroke-linecap:round;stroke-miterlimit:10;}
	.st21{fill:#A0BF38;}
	.st22{fill:#E6B041;}
	.st23{fill:none;stroke:#C6362E;stroke-width:0.7384;stroke-linecap:round;stroke-linejoin:round;stroke-miterlimit:10;}
	.st24{fill:none;stroke:#386639;stroke-width:0.8146;stroke-linecap:round;stroke-linejoin:round;stroke-miterlimit:10;}
</style>
<image style="display:none;overflow:visible;" width="1683" height="928" xlink:href="A73CE3AA931654C5.png"  transform="matrix(0.9919 0 0 0.9919 -1054.2211 -47.6536)">
</image>
<g>
	<path class="st4" d="M2.643,29.806l17.844,0.006c1.459,0.001,2.645-1.184,2.646-2.643l0.011-24.514
		c0.002-1.462-1.186-2.65-2.648-2.652L9.384,0C8.682-0.001,8.011,0.276,7.511,0.773L0.784,7.475
		C0.285,7.972,0.004,8.647,0.006,9.351L0,27.153c-0.007,1.458,1.169,2.646,2.628,2.654C2.633,29.806,2.638,29.806,2.643,29.806z"/>
	<g class="st11">
		
			<image style="overflow:visible;opacity:0.85;" width="76" height="47" xlink:href="A73CE3AA931654C7.png"  transform="matrix(0.24 0 0 0.24 2.8224 11.5482)">
		</image>
		<g>
			<g>
				<line class="st18" x1="19.407" y1="12.344" x2="3.999" y2="12.232"/>
				<line class="st18" x1="19.376" y1="16.624" x2="3.968" y2="16.513"/>
				<line class="st18" x1="19.346" y1="20.904" x2="3.937" y2="20.793"/>
			</g>
		</g>
	</g>
</g>
</svg>
