<?xml version="1.0" encoding="utf-8"?>
<!-- Generator: Adobe Illustrator 23.0.3, SVG Export Plug-In . SVG Version: 6.00 Build 0)  -->
<svg version="1.1" id="Capa_1" xmlns="http://www.w3.org/2000/svg" xmlns:xlink="http://www.w3.org/1999/xlink" x="0px" y="0px"
	 viewBox="0 0 401.221 235.611" style="enable-background:new 0 0 401.221 235.611;" xml:space="preserve">
<style type="text/css">
	.st0{fill:url(#SVGID_1_);}
	.st1{fill:#EBEBEB;}
	.st2{fill:#D8D8D8;}
	.st3{fill:#C4C4C4;}
	.st4{fill:#00ABFF;}
	.st5{fill:url(#SVGID_2_);}
	.st6{fill:url(#SVGID_3_);}
	.st7{fill:none;stroke:#3E3E3D;stroke-miterlimit:10;}
	.st8{fill:#222221;}
	.st9{fill:#C0CBD2;}
	.st10{fill:#F5F5F5;}
	.st11{opacity:0.29;}
	.st12{fill:none;stroke:#0060DF;stroke-width:1.9166;stroke-linecap:round;stroke-miterlimit:10;}
	.st13{fill:#BAC5CC;}
	.st14{opacity:0.37;}
	.st15{fill:none;stroke:#0060DF;stroke-width:0.7384;stroke-linecap:round;stroke-linejoin:round;stroke-miterlimit:10;}
	.st16{opacity:0.3;}
	.st17{fill:none;stroke:#0060DF;stroke-width:0.8146;stroke-linecap:round;stroke-linejoin:round;stroke-miterlimit:10;}
	.st18{fill:#A0BF38;}
	.st19{fill:#E6B041;}
	.st20{fill:none;stroke:#C6362E;stroke-width:0.7384;stroke-linecap:round;stroke-linejoin:round;stroke-miterlimit:10;}
	.st21{fill:none;stroke:#386639;stroke-width:0.8146;stroke-linecap:round;stroke-linejoin:round;stroke-miterlimit:10;}
</style>
<image style="display:none;overflow:visible;" width="1683" height="928" xlink:href="../../../Desktop/Captura de pantalla 2019-04-09 a las 9.14.54.png"  transform="matrix(0.9919 0 0 0.9919 -882.5115 -405.395)">
</image>
<polygon class="st1" points="196.796,107.661 231.954,120.065 347.357,96.325 "/>
<polygon class="st9" points="196.796,107.661 226.381,125.007 227.014,134.108 232.269,124.597 347.357,96.325 231.954,120.065 "/>
<g>
	<g>
		<path class="st10" d="M370.7,191.585c-2.699-1.854-5.982-2.07-9.123-1.888c-0.327,0.019-1.826,0.421-2.233,0.139
			c-2.26-9.065-12.888-11.527-19.863-7.4c-0.596,0.353-1.861,1.224-1.894,1.252c-0.708-0.65-1.367-1.566-1.978-2.326
			c-2.482-5.087-4.302-10.571-9.356-13.799c-6.851-4.376-15.891-1.963-20.588,4.345c-2.216,2.976-3.372,6.559-3.581,10.244
			c-0.219,0.041-4.534,0.14-6.463,0.619c-7.695,1.911-9.99,9.953-9.989,16.962c0,2.593,4.547,6.975,9.473,6.954
			c24.862,1.413,49.8,0.491,74.491-2.768c2.994-0.395,5.593-2.288,5.593-5.593C375.187,196.569,373.582,193.565,370.7,191.585z
			 M378.883,186.216C378.321,186.673,378.546,186.346,378.883,186.216L378.883,186.216z"/>
	</g>
	<g>
		<path class="st10" d="M77.969,62.022c0.156-4.437-3.032-8.824-7.402-9.839c-2.103-0.489-4.278-0.251-6.241,0.601
			c-0.136-0.842-0.841-7.844-1.614-10.448c-1.558-5.244-6.695-9.864-12.469-7.981c-5.093,1.661-7.356,8.069-8.495,12.771
			c-0.291,1.203-0.447,2.485-0.579,3.787c-1.092-0.696-2.333-1.162-3.629-1.347c-5.769-0.822-10.047,4.032-9.795,9.392
			c-1.518,0.191-3.035,0.382-4.553,0.573c-2.358,0.297-5.838,1.147-6.337,4.302c-0.3,4.032,0.8,7.821,5.092,7.629
			c4.168-0.187,21.024-0.834,25.1-1.236c9.824-0.256,19.654-0.214,29.479,0.246c2.377,0.111,4.402-2.103,4.402-4.402
			C80.926,63.999,79.663,62.651,77.969,62.022z"/>
		<g>
			<path class="st10" d="M23.516,54.845c0.061-2.125,1.004-4.245,2.61-5.745c0.797-0.746,1.732-1.398,2.798-1.709
				c1.056-0.312,2.191-0.39,3.241-0.121l-0.004,0.079c-1.056,0.164-2.044,0.405-2.979,0.786c-0.924,0.381-1.852,0.796-2.642,1.44
				c-1.568,1.281-2.66,3.198-2.946,5.278L23.516,54.845z"/>
		</g>
		<g>
			<path class="st10" d="M70.057,47.759c2.814,0,5.65,0.932,7.952,2.651c1.152,0.849,2.213,1.869,2.977,3.097
				c0.744,1.231,1.312,2.582,1.484,4l-0.076,0.022c-0.602-1.276-1.241-2.49-2.061-3.582c-0.8-1.096-1.661-2.16-2.713-3.041
				c-2.106-1.743-4.781-2.84-7.566-3.067L70.057,47.759z"/>
		</g>
		<g>
			<path class="st10" d="M58.499,31.153c1.448,0.21,2.831,0.931,3.905,1.984c0.536,0.523,1.062,1.101,1.355,1.811
				c0.292,0.702,0.45,1.472,0.347,2.225l-0.078,0.012c-0.322-0.675-0.618-1.295-0.973-1.885c-0.354-0.582-0.663-1.199-1.112-1.734
				c-0.891-1.059-2.085-1.907-3.462-2.337L58.499,31.153z"/>
		</g>
	</g>
	<g>
		<path class="st10" d="M340.9,40.097c0.059-4.57-3.261-9.051-7.774-10.14c-2.363-0.57-4.782-0.126-6.844,0.994
			c-1.935-4.826-5.465-8.934-10.921-9.95c-3.365-0.627-8.575,0.124-8.888,0.212c-4.361,1.231-7.618,5.31-8.886,9.173
			c-0.075,0.155-0.142,0.313-0.212,0.47c-2.057-0.61-4.258-0.643-6.208,0.072c-3.252,1.192-7.136,4.961-6.391,10.277
			c0.007,0.051,0.005,0.104,0.007,0.156c0.08,1.814,3.443,7.887,7.279,7.882c0.437-0.001,38.197,0.418,43.004,0
			C339.757,48.836,342.303,43.254,340.9,40.097z"/>
		<g>
			<path class="st10" d="M289.394,26.52c-2.658,1.007-5.302,2.253-7.229,4.256c-0.946,1.002-1.612,2.212-2.129,3.448
				c-0.519,1.247-0.777,2.593-0.676,4.034l-0.097,0.026c-0.649-1.333-0.623-2.966-0.168-4.399c0.457-1.454,1.413-2.688,2.511-3.682
				c2.209-2.016,5.009-3.039,7.757-3.778L289.394,26.52z"/>
		</g>
		<g>
			<path class="st10" d="M295.522,22.629c1.345-1.815,3.075-3.366,5.046-4.543c0.982-0.586,1.999-1.17,3.121-1.463
				c1.114-0.298,2.274-0.453,3.429-0.327l0.013,0.099l-3.128,1.178c-1.011,0.411-2.062,0.726-3.051,1.216
				c-1.97,0.975-3.797,2.29-5.354,3.906L295.522,22.629z"/>
		</g>
		<g>
			<path class="st10" d="M316.332,16.842c1.857-0.63,3.928-0.676,5.877-0.174c0.969,0.249,1.964,0.555,2.791,1.16
				c0.823,0.593,1.548,1.343,1.992,2.258l-0.075,0.067c-0.846-0.536-1.627-1.04-2.449-1.477c-0.818-0.426-1.606-0.926-2.494-1.242
				c-1.761-0.628-3.712-0.837-5.619-0.494L316.332,16.842z"/>
		</g>
	</g>
	<g>
		<path class="st10" d="M258.202,212.431c21.035,0.67,42.083,0.863,63.121,0.581c5.259-0.085,10.518-0.197,15.776-0.335
			c5.258-0.118,10.516-0.263,15.773-0.433c10.517-0.258,21.029-0.659,31.55-0.974l0.006,0.1
			c-10.491,0.886-21.005,1.434-31.523,1.874c-5.261,0.168-10.523,0.309-15.785,0.424c-5.263,0.075-10.526,0.123-15.79,0.145
			c-21.053,0.105-42.106-0.322-63.132-1.281L258.202,212.431z"/>
	</g>
	<g>
		<path class="st10" d="M376.773,189.121c2.366,0.597,4.477,2.307,5.563,4.606c0.54,1.14,0.909,2.417,0.806,3.7
			c-0.093,1.27-0.507,2.53-1.289,3.506l-0.09-0.044c0.273-1.197,0.417-2.343,0.379-3.486c-0.047-1.13-0.126-2.281-0.541-3.361
			c-0.824-2.142-2.615-3.964-4.859-4.827L376.773,189.121z"/>
	</g>
	<g>
		<path class="st10" d="M348.842,174.982c2.16,0.311,4.356,0.652,6.427,1.567c1.026,0.456,2.07,0.995,2.857,1.852
			c0.783,0.839,1.395,1.892,1.535,3.027l-0.093,0.036c-0.649-0.908-1.343-1.671-2.135-2.342c-0.79-0.657-1.584-1.347-2.517-1.855
			c-1.867-1.018-3.993-1.595-6.095-2.187L348.842,174.982z"/>
	</g>
	<g>
		<path class="st10" d="M235.171,213.447c1.798-0.142,3.58-0.359,5.344-0.647c0.883-0.143,1.745-0.397,2.634-0.474
			c0.89-0.084,1.783-0.153,2.72-0.086l0.022,0.097c-0.817,0.47-1.69,0.755-2.574,0.974c-0.885,0.226-1.807,0.225-2.712,0.283
			c-1.814,0.115-3.632,0.099-5.434-0.048L235.171,213.447z"/>
	</g>
	<g>
		<path class="st10" d="M216.697,221.747c3.096-0.974,6.44-0.808,9.602-0.21c3.181,0.613,6.235,1.682,9.314,2.524
			c3.078,0.836,6.218,1.423,9.336,1.262c3.108-0.126,6.25-1.079,8.645-3.237l0.073,0.068c-0.501,0.638-1.099,1.199-1.743,1.71
			c-0.662,0.485-1.379,0.896-2.126,1.249c-1.507,0.682-3.141,1.04-4.781,1.208c-3.32,0.303-6.564-0.547-9.628-1.492
			c-3.085-0.948-6.08-2.102-9.193-2.802c-3.09-0.717-6.36-1.02-9.471-0.184L216.697,221.747z"/>
	</g>
	<g>
		<path class="st10" d="M320.801,61.845c4.609-2.375,9.811-3.397,14.966-3.676c5.177-0.267,10.351,0.15,15.483,0.633
			c5.132,0.479,10.259,0.901,15.374,0.879c5.109,0.004,10.238-0.654,15.076-2.453l0.04,0.092c-4.643,2.344-9.927,3.19-15.099,3.361
			c-5.204,0.153-10.358-0.497-15.474-1.083c-5.114-0.581-10.244-1.094-15.379-0.929c-5.116,0.145-10.29,1.019-14.943,3.266
			L320.801,61.845z"/>
	</g>
	<g>
		<path class="st10" d="M245.137,37.299c-6.266-4.078-14.505-4.665-21.327-1.856c-3.432,1.396-6.367,3.751-8.847,6.497
			c-2.524,2.716-4.698,5.756-7.157,8.593c-1.233,1.414-2.505,2.813-3.951,4.046c-1.439,1.235-3.018,2.326-4.734,3.184
			c-3.472,1.667-7.399,2.171-11.173,1.844c-3.791-0.336-7.457-1.446-10.89-2.954c-3.449-1.497-6.69-3.374-9.908-5.264l0.048-0.088
			c1.669,0.836,3.336,1.675,5.024,2.464c1.678,0.807,3.374,1.573,5.103,2.244c3.447,1.354,7.033,2.38,10.7,2.601
			c3.646,0.274,7.37-0.222,10.672-1.742c1.639-0.787,3.166-1.801,4.578-2.971c1.418-1.167,2.688-2.516,3.929-3.891
			c2.467-2.769,4.689-5.788,7.285-8.51c2.546-2.747,5.605-5.139,9.135-6.516c7.026-2.745,15.347-1.972,21.569,2.237L245.137,37.299z
			"/>
	</g>
</g>
<g>
	<path class="st4" d="M261.06,148.527l-39.472-12.019c-3.227-0.983-5.052-4.402-4.07-7.629l16.507-54.228
		c0.982-3.235,4.41-5.061,7.645-4.079l24.58,7.483c1.554,0.471,2.852,1.538,3.621,2.972l10.359,19.362
		c0.77,1.435,0.936,3.118,0.457,4.673l-11.993,39.379c-0.968,3.23-4.371,5.065-7.601,4.097
		C261.083,148.534,261.072,148.53,261.06,148.527z"/>
	<g class="st11">
		
			<image style="overflow:visible;opacity:0.85;" width="191" height="146" xlink:href="A5D4B35FCB754F16.png"  transform="matrix(0.24 0 0 0.24 227.7102 96.985)">
		</image>
		<g>
			<g>
				<line class="st12" x1="235.757" y1="98.597" x2="269.914" y2="108.742"/>
				<line class="st12" x1="232.939" y1="108.085" x2="267.096" y2="118.23"/>
				<line class="st12" x1="230.121" y1="117.573" x2="264.278" y2="127.718"/>
			</g>
		</g>
	</g>
</g>
<polygon class="st13" points="231.361,158.299 232.342,172.397 347.357,96.325 "/>
<polygon class="st1" points="347.357,96.325 206.233,171.724 232.269,124.597 "/>
<polygon class="st1" points="74.383,115.642 94.008,122.566 158.423,109.315 "/>
<polygon class="st9" points="74.383,115.642 90.897,125.324 91.251,130.404 94.184,125.095 158.423,109.315 94.008,122.566 "/>
<g>
	<path class="st18" d="M109.532,137.176L87.5,130.467c-1.801-0.548-2.82-2.457-2.271-4.258l9.214-30.269
		c0.548-1.806,2.462-2.825,4.267-2.277l13.72,4.177c0.867,0.263,1.592,0.858,2.021,1.659l5.782,10.807
		c0.43,0.801,0.523,1.74,0.255,2.608l-6.694,21.98c-0.54,1.803-2.44,2.827-4.243,2.287
		C109.546,137.18,109.539,137.178,109.532,137.176z"/>
</g>
<polygon class="st13" points="93.677,143.907 94.224,151.776 158.423,109.315 "/>
<g>
	<path class="st10" d="M205.68,135.953c-2.979,1.226-5.572,3.258-7.705,5.65c-2.141,2.399-3.861,5.15-5.269,8.035
		c-2.823,5.79-4.507,12.049-7.098,17.965c-1.297,2.954-2.839,5.822-4.792,8.41c-1.947,2.581-4.337,4.879-7.181,6.477
		c-2.846,1.584-6.138,2.371-9.401,2.19c-3.251-0.165-6.519-1.457-8.785-3.883c-1.108-1.21-1.973-2.723-2.17-4.406
		c-0.224-1.681,0.443-3.452,1.727-4.576c0.643-0.561,1.464-0.946,2.335-1.012c0.866-0.065,1.733,0.165,2.472,0.573
		c1.479,0.833,2.581,2.156,3.376,3.576c0.205,0.354,0.428,0.699,0.618,1.061l0.506,1.119l0.253,0.56l0.192,0.583l0.382,1.167
		c0.392,1.586,0.682,3.207,0.686,4.843c0.09,3.269-0.553,6.534-1.769,9.557c-1.209,3.023-2.917,5.867-5.156,8.249
		c-2.237,2.377-4.841,4.391-7.683,5.975c-5.683,3.209-12.081,4.875-18.484,5.734c-6.405,0.794-12.97,1.088-19.382-0.207
		c-6.363-1.266-12.559-4.424-16.684-9.618c-1.02-1.303-1.886-2.693-2.575-4.233c-0.321-0.781-0.562-1.7-0.367-2.644
		c0.197-0.954,0.863-1.739,1.644-2.199c0.788-0.466,1.698-0.669,2.606-0.615c0.926,0.075,1.76,0.441,2.48,0.941
		c1.424,1.032,2.385,2.509,2.987,4.063c0.627,1.55,0.987,3.22,0.979,4.892c-0.003,1.67-0.285,3.326-0.787,4.908
		c-1.059,3.141-2.969,5.998-5.548,8.094c-0.629,0.544-1.338,0.981-2.036,1.432c-0.738,0.383-1.468,0.789-2.248,1.066
		c-1.539,0.597-3.151,1.024-4.791,1.19c-1.637,0.179-3.29,0.177-4.922-0.001c-1.63-0.198-3.234-0.554-4.795-1.046
		c-3.109-1.017-6.038-2.581-8.58-4.63c-2.559-2.023-4.756-4.466-6.653-7.095c-3.801-5.282-6.343-11.315-8.423-17.407
		c-2.071-6.11-3.755-12.333-6.071-18.345l0.093-0.037c2.429,5.975,4.232,12.179,6.409,18.232c2.138,6.052,4.715,12.013,8.511,17.181
		c1.893,2.572,4.07,4.947,6.588,6.898c2.493,1.972,5.354,3.463,8.375,4.421c1.516,0.462,3.069,0.791,4.64,0.968
		c1.573,0.156,3.158,0.143,4.72-0.042c1.566-0.171,3.093-0.594,4.546-1.173c0.74-0.27,1.416-0.658,2.104-1.021
		c0.65-0.432,1.312-0.845,1.898-1.364c2.426-1.968,4.237-4.677,5.234-7.632c0.472-1.488,0.734-3.038,0.739-4.59
		c0.009-1.555-0.327-3.093-0.903-4.519c-0.549-1.438-1.443-2.766-2.639-3.629c-0.597-0.418-1.295-0.71-1.98-0.763
		c-0.698-0.043-1.428,0.12-2.027,0.477c-0.598,0.357-1.047,0.909-1.181,1.548c-0.138,0.65,0.025,1.372,0.313,2.067
		c0.627,1.399,1.47,2.768,2.437,3.998c3.914,4.982,9.883,8.09,16.087,9.353c6.249,1.297,12.748,1.047,19.097,0.29
		c6.337-0.825,12.649-2.448,18.231-5.573c2.791-1.539,5.35-3.507,7.535-5.811c2.187-2.307,3.865-5.077,5.056-8.022
		c1.199-2.945,1.836-6.127,1.761-9.303c0.002-1.59-0.274-3.162-0.647-4.7l-0.366-1.13l-0.183-0.565l-0.243-0.542l-0.485-1.084
		c-0.182-0.351-0.397-0.684-0.594-1.028c-0.761-1.379-1.814-2.626-3.15-3.384c-0.668-0.371-1.419-0.568-2.165-0.516
		c-0.743,0.054-1.451,0.378-2.024,0.873c-1.147,0.999-1.765,2.588-1.564,4.112c0.172,1.539,0.971,2.971,2.023,4.127
		c2.148,2.324,5.283,3.594,8.443,3.771c3.169,0.194,6.393-0.558,9.179-2.09c2.791-1.549,5.159-3.798,7.097-6.339
		c1.944-2.549,3.49-5.387,4.796-8.319c2.61-5.875,4.33-12.134,7.193-17.932c1.43-2.891,3.172-5.647,5.337-8.048
		c2.157-2.394,4.777-4.425,7.779-5.642L205.68,135.953z"/>
</g>
<polygon class="st1" points="167.621,39.38 151.884,44.932 100.229,34.306 "/>
<polygon class="st9" points="167.621,39.38 154.379,47.144 154.095,51.218 151.743,46.96 100.229,34.306 151.884,44.932 "/>
<g>
	<path class="st19" d="M138.841,57.676c-1.446,0.433-2.969-0.388-3.402-1.834l-5.368-17.626c-0.214-0.696-0.14-1.449,0.205-2.091
		l4.637-8.666c0.344-0.642,0.925-1.12,1.621-1.33l11.002-3.35c1.448-0.44,2.982,0.378,3.422,1.826l7.389,24.273
		c0.44,1.444-0.377,2.975-1.822,3.415l-17.668,5.38C138.851,57.673,138.846,57.675,138.841,57.676z"/>
</g>
<polygon class="st13" points="152.15,62.045 151.711,68.356 100.229,34.306 "/>
<g class="st14">
	
		<image style="overflow:visible;opacity:0.85;" width="79" height="67" xlink:href="A5D4B35FCB754F11.png"  transform="matrix(0.24 0 0 0.24 134.5609 32.8758)">
	</image>
	<g>
		<g>
			
				<rect x="136.724" y="35.362" transform="matrix(0.9574 -0.2887 0.2887 0.9574 -5.5323 43.235)" class="st20" width="14.165" height="10.021"/>
			<polyline class="st20" points="138.472,47.214 140.656,41.805 143.766,43.243 145.951,37.552 151.232,40.468 			"/>
			<path class="st20" d="M141.203,38.481c-0.12-0.398,0.105-0.819,0.504-0.939c0.398-0.12,0.819,0.105,0.939,0.504
				c0.12,0.398-0.105,0.819-0.504,0.939C141.743,39.105,141.323,38.879,141.203,38.481z"/>
		</g>
	</g>
</g>
<polygon class="st1" points="100.229,34.306 163.397,68.055 151.743,46.96 "/>
<g class="st16">
	
		<image style="overflow:visible;opacity:0.85;" width="91" height="79" xlink:href="A5D4B35FCB754F12.png"  transform="matrix(0.24 0 0 0.24 92.5883 107.5432)">
	</image>
	<g>
		<g>
			<path class="st21" d="M100.237,117.542c0.456,1.495-0.564,3.131-2.279,3.654c-1.715,0.523-3.475-0.265-3.931-1.761
				c-0.456-1.495,0.564-3.131,2.279-3.654C98.021,115.259,99.781,116.047,100.237,117.542z"/>
			<path class="st21" d="M108.789,120.167c0.456,1.495-0.564,3.131-2.279,3.654c-1.715,0.523-3.474-0.265-3.93-1.76
				c-0.456-1.495,0.564-3.131,2.279-3.654C106.573,117.883,108.333,118.671,108.789,120.167z"/>
			<polyline class="st21" points="100.229,119.028 103.116,108.39 112.228,111.185 108.783,121.653 			"/>
			<line class="st21" x1="102.213" y1="111.73" x2="111.029" y2="114.435"/>
		</g>
	</g>
</g>
<polygon class="st1" points="158.423,109.315 79.651,151.4 94.184,125.095 "/>
</svg>
