<?xml version="1.0" encoding="utf-8"?>
<svg id="master-artboard" viewBox="0 0 1400 980" version="1.1" xmlns="http://www.w3.org/2000/svg" x="0px" y="0px" style="enable-background:new 0 0 336 235.2;" width="1400px" height="980px"><rect id="ee-background" x="0" y="0" width="1400" height="980" style="fill: white; fill-opacity: 0; pointer-events: none;"/>














<g transform="matrix(1.1106653213500977, 0, 0, 1.1106653213500977, 464.1475829138401, 313.58195709993004)"><path d="M 400 200 A 200 200 0 0 1 200 400 A 200 200 0 0 1 0 200 A 200 200 0 0 1 200 0 A 200 200 0 0 1 400 200 Z" fill="#343434"/><g transform="rotate(0)">
                <path fill="#ffffff" d="M200,350c-82.71,0-150-67.29-150-150S117.29,50,200,50s150,67.29,150,150S282.71,350,200,350z M200,60.611&#10;                        c-76.86,0-139.389,62.53-139.389,139.389S123.14,339.389,200,339.389S339.389,276.86,339.389,200S276.86,60.611,200,60.611z">
                </path>

                <path fill="#ffffff" d="M296.454,153.023c-1.882,0-3.705-1.004-4.667-2.774C273.481,116.551,238.311,95.618,200,95.618&#10;                        c-2.93,0-5.305-2.375-5.305-5.305c0-2.93,2.375-5.305,5.305-5.305c42.204,0,80.948,23.058,101.111,60.177&#10;                        c1.399,2.575,0.446,5.796-2.13,7.195C298.177,152.816,297.309,153.023,296.454,153.023z"/>

                <animateTransform attributeType="xml" attributeName="transform" type="rotate" from="0 200 200" to="360 200 200" dur="3s" repeatCount="indefinite">
                </animateTransform>
            </g><g>
                <path fill="#ffffff" d="M162.867,276.409c-1.795,0-3.587-0.483-5.204-1.445c-3.116-1.855-4.977-5.126-4.977-8.753V134.935&#10;                        c0-3.626,1.86-6.898,4.976-8.752c3.116-1.854,6.879-1.929,10.066-0.2l0.236,0.136l107.667,65.773&#10;                        c3.204,1.804,5.188,5.189,5.188,8.875c0,3.688-1.987,7.076-5.195,8.879l-107.895,65.519&#10;                        C166.196,275.995,164.531,276.409,162.867,276.409z M163.297,135.701v129.746l106.505-64.682L163.297,135.701z M270.43,201.14&#10;                        h0.01H270.43z"/>
            </g></g></svg>