<?xml version="1.0" encoding="utf-8"?>
<!-- Generator: Adobe Illustrator 23.0.3, SVG Export Plug-In . SVG Version: 6.00 Build 0)  -->
<svg version="1.1" id="Capa_1" xmlns="http://www.w3.org/2000/svg" xmlns:xlink="http://www.w3.org/1999/xlink" x="0px" y="0px"
	 viewBox="0 0 215.058 36.967" style="enable-background:new 0 0 215.058 36.967;" xml:space="preserve">
<style type="text/css">
	.st0{fill:#343536;}
	.st1{fill:#FFFFFF;}
	.st2{fill:#00ABFF;}
	.st3{fill:#343434;}
</style>
<g>
	<path class="st2" d="M147.331,21.335c-0.96,0.032-1.663,0.048-2.111,0.048c-0.688,0-1.639-0.016-2.855-0.048
		c-0.256,0.28-0.568,0.61-0.936,0.99c-0.368,0.38-0.715,0.732-1.044,1.056c-0.328,0.324-0.61,0.6-0.846,0.828
		c-0.236,0.228-0.43,0.418-0.581,0.57c-0.888,0.864-1.466,1.428-1.733,1.691c-0.268,0.264-0.551,0.502-0.846,0.714
		c-0.296,0.212-0.568,0.318-0.816,0.318c-0.28,0-0.42-0.128-0.42-0.384c0-0.28,0.2-0.712,0.6-1.296s0.852-1.099,1.356-1.548
		c0.504-0.448,0.916-0.672,1.236-0.672c0.088,0,0.212,0.04,0.372,0.12l2.279-2.435c-0.288-0.04-0.664-0.066-1.128-0.078
		s-0.775-0.046-0.936-0.102c-0.16-0.056-0.24-0.192-0.24-0.408c0-0.344,0.368-0.883,1.104-1.62c0.4-0.408,0.775-0.667,1.128-0.78
		c0.352-0.112,1.024-0.172,2.015-0.18c-0.583,0.08-0.998,0.174-1.241,0.282c-0.244,0.108-0.378,0.27-0.402,0.486
		c0.232,0,0.446,0,0.642,0c0.195,0,0.451-0.002,0.768-0.006c0.315-0.004,0.55-0.01,0.701-0.018c1.312-1.279,2.503-2.393,3.575-3.341
		c1.072-0.948,2.202-1.847,3.388-2.699c1.189-0.852,2.454-1.633,3.797-2.345c0.264,0.344,0.396,0.704,0.396,1.08
		c0,0.312-0.101,0.672-0.306,1.08c-0.203,0.408-0.635,1.174-1.296,2.297c-0.659,1.124-1.329,2.317-2.009,3.581
		c0.224,0,0.41,0.002,0.558,0.006c0.147,0.004,0.305,0.01,0.473,0.018c0.456,0,0.734,0.008,0.833,0.024
		c0.1,0.016,0.15,0.096,0.15,0.24c0,0.064-0.062,0.178-0.185,0.342c-0.124,0.164-0.342,0.436-0.654,0.816
		c-0.312,0.38-0.616,0.766-0.912,1.158l-1.763,0.144c-0.936,1.76-1.404,2.752-1.404,2.975c0,0.328,0.172,0.492,0.516,0.492
		c0.168,0,0.864-0.352,2.087-1.056l-0.096,0.636c-0.655,0.496-1.166,0.886-1.53,1.17c-0.363,0.284-0.679,0.52-0.947,0.708
		c-0.268,0.188-0.513,0.328-0.733,0.42c-0.219,0.092-0.442,0.138-0.665,0.138c-0.264,0-0.523-0.122-0.78-0.366
		s-0.384-0.589-0.384-1.038c0-0.184,0.068-0.446,0.204-0.786c0.136-0.34,0.281-0.666,0.438-0.978
		C146.304,23.267,146.699,22.519,147.331,21.335z M145.063,18.612l3.887-0.072c0.456-0.775,0.826-1.404,1.11-1.883
		c0.284-0.48,0.595-1.002,0.936-1.566c0.339-0.564,0.631-1.042,0.875-1.434c0.244-0.392,0.515-0.835,0.81-1.332
		c-0.576,0.36-1.164,0.76-1.763,1.2c-0.6,0.44-1.276,0.97-2.027,1.59c-0.751,0.62-1.42,1.196-2.003,1.727
		C146.303,17.375,145.695,17.964,145.063,18.612z"/>
	<path class="st2" d="M158.163,22.499v0.876c-0.775,1-1.5,1.754-2.171,2.261c-0.672,0.508-1.243,0.762-1.715,0.762
		c-0.655,0-1.144-0.344-1.464-1.032c-0.32-0.688-0.48-1.44-0.48-2.255c0-0.312,0.032-0.61,0.096-0.894
		c0.064-0.284,0.14-0.517,0.228-0.702c0.088-0.184,0.252-0.472,0.492-0.864c1.135-1.767,2.176-2.651,3.119-2.651
		c0.487,0,0.732,0.188,0.732,0.564c0,0.256-0.158,0.656-0.474,1.2c-0.315,0.544-0.598,0.932-0.845,1.164
		c-0.696,0.672-1.149,1.14-1.362,1.404c-0.212,0.264-0.317,0.564-0.317,0.9c0,0.288,0.108,0.528,0.324,0.72
		c0.216,0.192,0.496,0.288,0.84,0.288c0.376,0,0.79-0.138,1.241-0.414C156.858,23.549,157.444,23.107,158.163,22.499z
		 M157.348,17.137c-0.2,0-0.39-0.076-0.569-0.228c-0.181-0.152-0.27-0.344-0.27-0.576c0-0.352,0.168-0.744,0.504-1.176
		c0.336-0.432,0.684-0.648,1.044-0.648c0.24,0,0.44,0.074,0.6,0.222c0.16,0.148,0.24,0.362,0.24,0.642
		c0,0.344-0.164,0.724-0.492,1.14C158.075,16.929,157.724,17.137,157.348,17.137z"/>
	<path class="st2" d="M157.935,23.423v-0.78c0.432-0.511,0.76-0.948,0.984-1.308c-0.256-0.088-0.442-0.196-0.558-0.324
		c-0.116-0.128-0.173-0.32-0.173-0.576c0-0.288,0.12-0.652,0.36-1.092c0.24-0.44,0.535-0.852,0.888-1.236
		c0.352-0.384,0.672-0.631,0.96-0.744c0.112-0.056,0.22-0.084,0.324-0.084c0.16,0,0.24,0.076,0.24,0.228
		c0,0.136-0.124,0.412-0.372,0.828c1.648-0.256,2.687-0.384,3.119-0.384c0.168,0,0.284,0.016,0.348,0.048
		c0.136,0.072,0.248,0.24,0.336,0.504s0.132,0.528,0.132,0.792c0,0.168-0.074,0.35-0.221,0.546
		c-0.148,0.196-0.402,0.482-0.762,0.858c-0.424,0.456-0.78,0.952-1.068,1.488c-0.288,0.536-0.432,0.94-0.432,1.212
		c0,0.376,0.232,0.564,0.696,0.564c0.487,0,1.336-0.496,2.543-1.488v0.804c-0.664,0.696-1.212,1.244-1.643,1.643
		c-0.432,0.4-0.832,0.718-1.2,0.954c-0.368,0.236-0.696,0.354-0.984,0.354c-0.336,0-0.616-0.154-0.84-0.462
		c-0.224-0.308-0.336-0.754-0.336-1.338c0-0.344,0.088-0.736,0.264-1.176c0.176-0.44,0.434-0.918,0.773-1.434
		c0.34-0.516,0.722-1.03,1.146-1.542c-0.224,0.048-0.475,0.098-0.756,0.15c-0.28,0.052-0.576,0.106-0.888,0.162
		c-0.312,0.056-0.552,0.1-0.72,0.132C159.599,21.715,158.879,22.615,157.935,23.423z"/>
	<path class="st2" d="M177.645,22.811c-0.2-0.368-0.499-0.7-0.9-0.996c-0.4-0.296-0.85-0.534-1.35-0.714
		c-0.499-0.18-1.021-0.314-1.565-0.402c-1.615-0.24-3.123-0.763-4.523-1.572c-0.12-0.064-0.248-0.2-0.384-0.408
		c-0.136-0.208-0.204-0.408-0.204-0.6c0-0.703,0.118-1.41,0.354-2.117c0.236-0.708,0.538-1.261,0.905-1.661
		c0.592-0.664,1.658-1.243,3.198-1.739c1.539-0.496,3.273-0.744,5.2-0.744c1.152,0,2.042,0.088,2.67,0.264
		c0.627,0.176,0.941,0.448,0.941,0.816c0,0.6-0.082,1.064-0.245,1.392c-0.165,0.328-0.34,0.546-0.528,0.654
		c-0.189,0.108-0.518,0.254-0.99,0.438c-0.504,0.176-0.942,0.36-1.313,0.552c-0.373,0.192-0.69,0.376-0.954,0.552
		c-0.264,0.176-0.428,0.264-0.492,0.264c-0.08,0-0.12-0.032-0.12-0.096c0-0.136,0.142-0.342,0.425-0.618
		c0.285-0.276,0.635-0.517,1.05-0.726c0.439-0.232,0.66-0.38,0.66-0.444c0-0.104-0.244-0.156-0.732-0.156
		c-1.48,0-2.847,0.132-4.103,0.396c-1.255,0.264-2.245,0.612-2.97,1.044c-0.723,0.432-1.085,0.872-1.085,1.32
		c0,0.28,0.149,0.478,0.45,0.594c0.299,0.116,0.961,0.31,1.985,0.582c1.024,0.272,1.939,0.584,2.747,0.936
		c1.159,0.496,2.02,1.012,2.579,1.548c0.559,0.536,0.84,1.136,0.84,1.799c0,0.456-0.11,0.914-0.329,1.374
		c-0.22,0.46-0.542,0.882-0.966,1.266c-0.424,0.384-0.912,0.7-1.464,0.948c-0.472,0.2-1.065,0.388-1.782,0.564
		c-0.715,0.176-1.491,0.314-2.327,0.414c-0.835,0.1-1.633,0.15-2.393,0.15c-1.399,0-2.526-0.132-3.376-0.396
		c-0.853-0.264-1.278-0.664-1.278-1.2c0-0.24,0.144-0.613,0.432-1.122c0.288-0.508,0.628-0.85,1.02-1.026
		c0.344-0.136,0.676-0.214,0.996-0.234c0.32-0.02,0.48,0.018,0.48,0.114c0,0.024-0.012,0.048-0.036,0.072
		c-0.024,0.024-0.052,0.044-0.084,0.06c-0.032,0.016-0.064,0.032-0.096,0.048c-0.16,0.064-0.29,0.114-0.39,0.15
		c-0.099,0.036-0.179,0.072-0.24,0.108c-0.059,0.036-0.089,0.086-0.089,0.15c0,0.168,0.828,0.252,2.483,0.252
		c1.44,0,2.62-0.052,3.539-0.156c0.919-0.104,1.732-0.292,2.435-0.564C176.429,23.667,177.07,23.291,177.645,22.811z"/>
	<path class="st2" d="M190.074,22.499v0.756c-0.696,0.712-1.298,1.294-1.806,1.745c-0.507,0.452-0.951,0.794-1.331,1.026
		c-0.381,0.232-0.702,0.348-0.966,0.348c-0.624,0-0.936-0.368-0.936-1.104c0-0.592,0.194-1.278,0.582-2.057
		c0.387-0.78,0.946-1.697,1.673-2.753c-0.36,0.2-0.7,0.43-1.02,0.69c-0.32,0.26-0.604,0.532-0.852,0.816
		c-0.248,0.284-0.456,0.526-0.624,0.726c-0.52,0.584-1.02,1.182-1.5,1.793c-0.48,0.612-0.804,1.01-0.972,1.194
		c-0.168,0.184-0.328,0.276-0.48,0.276c-0.624,0-0.936-0.768-0.936-2.303c0-0.504,0.076-1.059,0.228-1.667
		c0.152-0.607,0.559-1.411,1.224-2.411c1.399-2.095,2.597-3.809,3.593-5.14c0.995-1.332,1.821-2.339,2.477-3.023
		c0.655-0.684,1.096-1.018,1.32-1.002c0.28,0.024,0.506,0.08,0.677,0.168c0.172,0.088,0.258,0.188,0.258,0.3
		c0,0.2-0.139,0.53-0.413,0.99c-0.277,0.46-0.75,1.178-1.422,2.153c-0.727,1.032-1.243,1.757-1.548,2.177
		c-0.304,0.42-0.758,1.016-1.362,1.787c-0.603,0.772-1.155,1.46-1.656,2.063c-0.499,0.604-1.069,1.258-1.709,1.961v1.44
		c1.072-1.191,1.999-2.167,2.783-2.927c0.784-0.76,1.447-1.333,1.991-1.721c0.544-0.388,0.943-0.582,1.2-0.582
		c0.24,0,0.464,0.142,0.672,0.426c0.208,0.284,0.312,0.518,0.312,0.702c0,0.08-0.04,0.18-0.12,0.3
		c-0.576,0.688-1.034,1.258-1.373,1.709c-0.34,0.452-0.602,0.856-0.786,1.212c-0.184,0.356-0.276,0.662-0.276,0.918
		c0,0.376,0.18,0.564,0.54,0.564C187.902,24.046,188.754,23.531,190.074,22.499z"/>
	<path class="st2" d="M191.477,20.352c1.216-1.104,2.395-1.923,3.539-2.459c1.144-0.535,2.027-0.804,2.651-0.804
		c0.168,0,0.324,0.07,0.468,0.21c0.144,0.14,0.257,0.302,0.342,0.486c0.083,0.184,0.125,0.32,0.125,0.408
		c0,0.144-0.056,0.25-0.168,0.318c-0.112,0.068-0.308,0.15-0.588,0.246c0.056,0.128,0.128,0.292,0.216,0.492
		c0.088,0.2,0.156,0.362,0.204,0.486c0.048,0.124,0.072,0.234,0.072,0.33c0,0.192-0.194,0.55-0.581,1.074
		c-0.388,0.524-0.661,0.91-0.816,1.158c-0.157,0.248-0.234,0.552-0.234,0.912c0,0.592,0.272,0.888,0.816,0.888
		c0.559,0,1.435-0.523,2.627-1.572v0.732c-2.023,2.248-3.471,3.371-4.343,3.371c-0.312,0-0.534-0.102-0.665-0.306
		c-0.133-0.204-0.198-0.505-0.198-0.906c0-0.631,0.228-1.548,0.684-2.747c-1.168,1.296-2.035,2.218-2.603,2.765
		c-0.568,0.548-1.036,0.822-1.404,0.822c-0.176,0-0.396-0.152-0.66-0.456c-0.264-0.304-0.497-0.697-0.702-1.182
		c-0.203-0.484-0.305-0.985-0.305-1.506c0-0.376,0.036-0.69,0.108-0.942s0.212-0.51,0.42-0.774S191.021,20.783,191.477,20.352z
		 M197.223,19.032c-2.08,0.952-3.561,1.76-4.445,2.423c-0.883,0.664-1.325,1.348-1.325,2.051c0,0.256,0.044,0.466,0.132,0.63
		c0.088,0.164,0.208,0.246,0.36,0.246c0.088,0,0.244-0.056,0.468-0.168c0.84-0.496,1.608-1.141,2.303-1.937
		C195.412,21.481,196.247,20.4,197.223,19.032z"/>
	<path class="st2" d="M199.923,23.423v-0.78c0.432-0.511,0.76-0.948,0.984-1.308c-0.256-0.088-0.442-0.196-0.558-0.324
		c-0.116-0.128-0.173-0.32-0.173-0.576c0-0.288,0.12-0.652,0.36-1.092c0.24-0.44,0.535-0.852,0.888-1.236
		c0.352-0.384,0.672-0.631,0.96-0.744c0.112-0.056,0.22-0.084,0.324-0.084c0.16,0,0.24,0.076,0.24,0.228
		c0,0.136-0.124,0.412-0.372,0.828c1.648-0.256,2.687-0.384,3.119-0.384c0.168,0,0.284,0.016,0.348,0.048
		c0.136,0.072,0.248,0.24,0.336,0.504c0.088,0.264,0.132,0.528,0.132,0.792c0,0.168-0.074,0.35-0.221,0.546
		c-0.148,0.196-0.402,0.482-0.762,0.858c-0.424,0.456-0.78,0.952-1.068,1.488c-0.288,0.536-0.432,0.94-0.432,1.212
		c0,0.376,0.232,0.564,0.696,0.564c0.487,0,1.336-0.496,2.543-1.488v0.804c-0.664,0.696-1.212,1.244-1.643,1.643
		c-0.432,0.4-0.832,0.718-1.2,0.954c-0.368,0.236-0.696,0.354-0.984,0.354c-0.336,0-0.616-0.154-0.84-0.462
		c-0.224-0.308-0.336-0.754-0.336-1.338c0-0.344,0.088-0.736,0.264-1.176c0.176-0.44,0.434-0.918,0.773-1.434
		c0.34-0.516,0.722-1.03,1.146-1.542c-0.224,0.048-0.475,0.098-0.756,0.15c-0.28,0.052-0.576,0.106-0.888,0.162
		c-0.312,0.056-0.552,0.1-0.72,0.132C201.586,21.715,200.866,22.615,199.923,23.423z"/>
	<path class="st2" d="M209.136,22.931v0.3c0,0.472,0.116,0.84,0.348,1.104c0.232,0.264,0.535,0.396,0.912,0.396
		c0.392,0,0.797-0.092,1.218-0.276c0.419-0.184,0.838-0.428,1.253-0.732c0.415-0.304,0.924-0.712,1.524-1.224v0.732
		c-0.904,1.088-1.751,1.922-2.543,2.501c-0.792,0.58-1.596,0.87-2.411,0.87c-0.712,0-1.276-0.276-1.691-0.828
		c-0.416-0.552-0.624-1.308-0.624-2.267c0-0.84,0.196-1.602,0.588-2.285c0.392-0.684,1.032-1.405,1.919-2.165
		c0.607-0.52,1.212-0.912,1.811-1.176c0.6-0.264,1.135-0.396,1.608-0.396c0.376,0,0.674,0.086,0.894,0.258
		c0.219,0.172,0.329,0.43,0.329,0.774c0,0.504-0.188,1.006-0.564,1.506c-0.376,0.5-0.95,0.996-1.722,1.488
		C211.213,22.001,210.263,22.475,209.136,22.931z M209.256,22.151c0.72-0.28,1.336-0.628,1.847-1.044
		c0.511-0.416,0.89-0.814,1.134-1.194c0.243-0.38,0.365-0.658,0.365-0.834c0-0.184-0.084-0.276-0.252-0.276
		c-0.144,0-0.377,0.092-0.702,0.276c-0.323,0.184-0.651,0.424-0.984,0.72c-0.332,0.296-0.629,0.644-0.893,1.044
		C209.508,21.244,209.335,21.679,209.256,22.151z"/>
</g>
<g>
	<g>
		<path class="st3" d="M54.735,17.921c0.8-0.761,1.263-1.882,1.263-3.115c0-3.004-2.161-4.87-5.64-4.87H43.92
			c-0.198,0-0.359,0.161-0.359,0.359v16.662c0,0.198,0.161,0.359,0.359,0.359h7.549c3.523,0,5.89-2.094,5.89-5.21
			C57.358,20.124,56.476,18.719,54.735,17.921z M49.995,16.737h-2.271v-2.932h2.18c0.713,0,1.909,0.189,1.909,1.455
			C51.813,16.17,51.116,16.737,49.995,16.737z M47.724,20.197h3.223c0.995,0,2.18,0.284,2.18,1.636c0,1.404-1.309,1.614-2.09,1.614
			h-3.314V20.197z"/>
		<path class="st3" d="M62.644,14.457h-3.506c-0.208,0-0.377,0.169-0.377,0.377v12.091c0,0.208,0.169,0.377,0.377,0.377h3.506
			c0.208,0,0.377-0.169,0.377-0.377V14.835C63.021,14.626,62.852,14.457,62.644,14.457z"/>
		<path class="st3" d="M60.903,8.591c-1.407,0-2.429,1.021-2.429,2.428c0,1.407,1.021,2.428,2.429,2.428
			c1.407,0,2.428-1.021,2.428-2.428C63.331,9.612,62.31,8.591,60.903,8.591z"/>
		<path class="st3" d="M73.757,23.544c-0.035-0.109-0.116-0.196-0.223-0.237c-0.105-0.041-0.225-0.032-0.324,0.024
			c-0.246,0.141-0.682,0.308-1.362,0.308c-0.821,0-1.293-0.462-1.293-1.269v-4.202h3.081c0.208,0,0.377-0.169,0.377-0.377v-2.957
			c0-0.208-0.169-0.377-0.377-0.377h-3.081v-3.629c0-0.208-0.169-0.377-0.377-0.377h-3.505c-0.208,0-0.377,0.169-0.377,0.377v3.629
			h-1.793c-0.208,0-0.377,0.169-0.377,0.377v2.957c0,0.208,0.169,0.377,0.377,0.377h1.793v4.249c0,3.208,1.95,5.124,5.218,5.124
			c1.093,0,2.06-0.259,2.959-0.793c0.151-0.09,0.22-0.272,0.167-0.439L73.757,23.544z"/>
		<path class="st3" d="M88.59,13.332v-3.038c0-0.198-0.161-0.359-0.359-0.359H73.973c-0.198,0-0.359,0.161-0.359,0.359v3.038
			c0,0.198,0.161,0.359,0.359,0.359h5.037v13.266c0,0.198,0.161,0.359,0.359,0.359h3.446c0.198,0,0.359-0.161,0.359-0.359V13.691
			h5.059C88.43,13.691,88.59,13.53,88.59,13.332z"/>
		<path class="st3" d="M98.752,14.457h-3.506c-0.208,0-0.377,0.169-0.377,0.377v7.494c-0.54,0.796-1.158,1.167-1.937,1.167
			c-0.928,0-1.483-0.688-1.483-1.841v-6.821c0-0.208-0.169-0.377-0.377-0.377h-3.505c-0.208,0-0.377,0.169-0.377,0.377v7.011
			c0,3.567,1.773,5.696,4.742,5.696c1.559,0,2.578-0.501,3.234-1.075l0.064,0.507c0.024,0.188,0.185,0.33,0.374,0.33h3.148
			c0.208,0,0.377-0.169,0.377-0.377V14.835C99.129,14.626,98.96,14.457,98.752,14.457z"/>
		<path class="st3" d="M108.813,14.219c-1.371,0-2.331,0.4-2.985,0.87V8.801c0-0.208-0.169-0.377-0.377-0.377h-3.505
			c-0.208,0-0.377,0.169-0.377,0.377v18.125c0,0.208,0.169,0.377,0.377,0.377h3.148c0.191,0,0.351-0.142,0.374-0.331l0.068-0.539
			c0.639,0.552,1.679,1.109,3.278,1.109c3.395,0,5.767-2.735,5.767-6.65C114.58,16.963,112.209,14.219,108.813,14.219z
			 M110.296,20.892c0,1.727-0.919,2.843-2.342,2.843c-0.907,0-1.585-0.393-2.127-1.234v-3.217c0.551-0.857,1.229-1.257,2.127-1.257
			C109.377,18.026,110.296,19.151,110.296,20.892z"/>
		<path class="st3" d="M121.879,14.219c-3.742,0-6.458,2.817-6.458,6.697c0,3.901,2.715,6.626,6.602,6.626
			c2.329,0,4.048-0.731,5.412-2.3c0.067-0.077,0.1-0.178,0.091-0.28c-0.008-0.102-0.059-0.196-0.138-0.26l-2.409-1.955
			c-0.08-0.065-0.183-0.093-0.286-0.081c-0.103,0.014-0.195,0.068-0.256,0.151c-0.506,0.69-1.36,1.086-2.343,1.086
			c-1.369,0-2.157-0.564-2.348-1.678h7.76c0.208,0,0.377-0.169,0.377-0.377v-1.121C127.884,16.773,125.526,14.219,121.879,14.219z
			 M121.759,17.621c1.177,0,1.725,0.785,1.872,1.63h-3.878C119.953,18.248,120.707,17.621,121.759,17.621z"/>
	</g>
	<g>
		<g>
			<path class="st3" d="M31.554,5.414C28.062,1.923,23.42,0,18.484,0c-4.937,0-9.579,1.923-13.07,5.414S0,13.546,0,18.484
				c0,4.938,1.923,9.579,5.414,13.07c3.491,3.491,8.132,5.414,13.07,5.414s9.579-1.923,13.07-5.414
				c3.491-3.491,5.414-8.133,5.414-13.07C36.967,13.547,35.045,8.905,31.554,5.414z"/>
		</g>
		<g>
			<path class="st1" d="M26.274,17.532L15.26,10.805c-0.371-0.201-0.808-0.193-1.17,0.024c-0.362,0.216-0.578,0.596-0.578,1.017
				V25.24c0,0.422,0.216,0.802,0.578,1.017c0.184,0.11,0.393,0.168,0.605,0.168c0.194,0,0.39-0.05,0.584-0.155l10.99-6.674
				c0.373-0.209,0.605-0.605,0.605-1.033C26.874,18.136,26.644,17.741,26.274,17.532z M25.329,18.561l-10.446,6.346V12.181
				L25.329,18.561z"/>
			<path class="st1" d="M18.484,6.607c-0.378,0-0.685,0.307-0.685,0.685c0,0.378,0.307,0.686,0.685,0.686
				c3.856,0,7.396,2.107,9.238,5.499c0.12,0.221,0.351,0.358,0.603,0.358c0.114,0,0.227-0.029,0.327-0.084
				c0.161-0.087,0.278-0.232,0.33-0.408c0.052-0.176,0.032-0.361-0.055-0.521C26.844,8.988,22.843,6.607,18.484,6.607z"/>
			<path class="st1" d="M29.408,7.56c-2.918-2.918-6.797-4.525-10.924-4.525c-4.126,0-8.006,1.607-10.925,4.525
				c-2.918,2.918-4.525,6.798-4.525,10.925s1.607,8.006,4.525,10.925c2.919,2.918,6.798,4.525,10.925,4.525
				s8.006-1.607,10.924-4.525c2.918-2.918,4.525-6.798,4.525-10.925C33.933,14.357,32.326,10.478,29.408,7.56z M32.561,18.484
				c0,3.76-1.464,7.295-4.123,9.954c-2.659,2.659-6.194,4.123-9.955,4.123c-3.76,0-7.296-1.464-9.954-4.123
				c-2.659-2.659-4.124-6.194-4.124-9.954c0-3.76,1.465-7.295,4.124-9.955c2.659-2.659,6.194-4.123,9.954-4.123
				c3.76,0,7.295,1.464,9.955,4.123C31.097,11.188,32.561,14.724,32.561,18.484z"/>
		</g>
	</g>
</g>
</svg>
