<svg xmlns="http://www.w3.org/2000/svg" viewBox="0 0 244.706 59.576">
  <defs>
    <style>
      .cls-1 {
        fill: #343434;
      }

      .cls-2 {
        fill: #fff;
        stroke: #fff;
        stroke-miterlimit: 10;
        stroke-width: 0.74px;
      }

      .cls-3 {
        fill: none;
        stroke: #343434;
        stroke-linecap: round;
        stroke-linejoin: round;
        stroke-width: 1.465px;
      }
    </style>
  </defs>
  <g id="logotype" transform="translate(-87.158 -81.422)">
    <g id="logotype-2" data-name="logotype" transform="translate(209.145 111.211)">
      <g id="logotype-3" data-name="logotype" transform="translate(-121.987 -29.789)">
        <g id="Gruppe_89" data-name="Gruppe 89">
          <path id="Pfad_218" data-name="Pfad 218" class="cls-1" d="M50.851,8.725a29.788,29.788,0,1,0,0,42.127,29.787,29.787,0,0,0,0-42.127Z" transform="translate(0 0)"/>
          <path id="Pfad_219" data-name="Pfad 219" class="cls-2" d="M40.445,26.862,22.737,16.04l-.033-.019a1.537,1.537,0,0,0-2.27,1.352V38.966a1.534,1.534,0,0,0,2.271,1.351l.016-.009L40.445,29.544a1.537,1.537,0,0,0,0-2.682Zm-.721,1.4-.016.009L21.994,39.03a.068.068,0,0,1-.09-.064V17.379a.061.061,0,0,1,.033-.058.067.067,0,0,1,.036-.01h.022l17.7,10.811.033.019a.067.067,0,0,1,0,.119ZM28.077,9.3a.741.741,0,0,0,0,1.471,17.305,17.305,0,0,1,15.215,9.057.741.741,0,1,0,1.29-.7A18.773,18.773,0,0,0,28.077,9.3Zm0-5.757a24.527,24.527,0,1,0,17.346,7.181A24.529,24.529,0,0,0,28.077,3.548ZM44.385,44.382a23.063,23.063,0,1,1,0-32.616A23.063,23.063,0,0,1,44.385,44.382Z" transform="translate(1.712 1.713)"/>
        </g>
        <g id="Gruppe_92" data-name="Gruppe 92" transform="translate(77.855 11.548)">
          <g id="Gruppe_90" data-name="Gruppe 90" transform="translate(0 0)">
            <path id="Pfad_220" data-name="Pfad 220" class="cls-1" d="M76.453,17.785a7.657,7.657,0,0,1-3.288,6.575A8.154,8.154,0,0,1,79.231,32.7c0,6.344-5,9.909-11.3,9.909H52.514V8.57h13.15C72.423,8.57,76.453,12.044,76.453,17.785Zm-16.9-2.778v7.454h5.371c2.686,0,4.448-1.483,4.448-3.751,0-2.316-1.714-3.706-4.631-3.706Zm0,13.058v8.1h7.5c3.057,0,5-1.389,5-4.03s-1.9-4.076-5.189-4.076Z" transform="translate(-52.514 -7.412)"/>
            <path id="Pfad_221" data-name="Pfad 221" class="cls-1" d="M81.027,11.99a3.983,3.983,0,1,1-3.983-3.983A3.983,3.983,0,0,1,81.027,11.99Zm-.6,30.887H73.617V19.4h6.808Z" transform="translate(-42.599 -7.684)"/>
            <path id="Pfad_222" data-name="Pfad 222" class="cls-1" d="M91.489,18.223H98.2v5.742H91.489v8.9a2.98,2.98,0,0,0,3.242,3.195,5.982,5.982,0,0,0,3.01-.7l1.714,5.371a10.186,10.186,0,0,1-5.371,1.435c-5.742,0-9.4-3.288-9.4-9.215V23.966H80.462V18.223h4.207V10.444h6.82Z" transform="translate(-39.028 -6.508)"/>
            <path id="Pfad_223" data-name="Pfad 223" class="cls-1" d="M123.048,14.774H111.977V42.606h-7.039V14.774H93.921V8.57h29.127Z" transform="translate(-32.533 -7.412)"/>
            <path id="Pfad_224" data-name="Pfad 224" class="cls-1" d="M133.969,39.17h-6.112l-.325-2.547a7.948,7.948,0,0,1-6.806,3.01c-5.558,0-8.474-4.03-8.474-10.327V15.691h6.808V28.935c0,2.547,1.3,4.307,3.611,4.307a5.235,5.235,0,0,0,4.492-2.778V15.691h6.806Z" transform="translate(-23.688 -3.976)"/>
            <path id="Pfad_225" data-name="Pfad 225" class="cls-1" d="M137.892,21.634a8.369,8.369,0,0,1,6.523-2.593c6.252,0,10.465,5.189,10.465,12.225s-4.2,12.179-10.459,12.179a8.287,8.287,0,0,1-6.9-3.057l-.325,2.593h-6.113V7.789h6.808Zm0,6.3V34.6a5.445,5.445,0,0,0,4.863,2.918c3.1,0,5.279-2.408,5.279-6.252,0-3.89-2.176-6.3-5.279-6.3A5.485,5.485,0,0,0,137.892,27.932Z" transform="translate(-14.601 -7.789)"/>
            <path id="Pfad_226" data-name="Pfad 226" class="cls-1" d="M171.968,27.278v2.176H156.086c.139,3.01,1.991,4.723,5.371,4.723a6.247,6.247,0,0,0,5.14-2.408l4.683,3.8a12.2,12.2,0,0,1-9.955,4.215,11.509,11.509,0,0,1-12.087-12.133c0-7.039,4.815-12.271,11.808-12.271C168.4,15.378,171.968,20.842,171.968,27.278Zm-15.882-2.129h9.168a4.354,4.354,0,0,0-4.448-4.631,4.578,4.578,0,0,0-4.72,4.631Z" transform="translate(-5.849 -4.125)"/>
          </g>
          <g id="Gruppe_91" data-name="Gruppe 91" transform="translate(0 0)">
            <path id="Pfad_227" data-name="Pfad 227" class="cls-3" d="M76.453,17.785a7.657,7.657,0,0,1-3.288,6.575A8.154,8.154,0,0,1,79.231,32.7c0,6.344-5,9.909-11.3,9.909H52.514V8.57h13.15C72.423,8.57,76.453,12.044,76.453,17.785Zm-16.9-2.778v7.454h5.371c2.686,0,4.448-1.483,4.448-3.751,0-2.316-1.714-3.706-4.631-3.706Zm0,13.058v8.1h7.5c3.057,0,5-1.389,5-4.03s-1.9-4.076-5.189-4.076Z" transform="translate(-52.514 -7.412)"/>
            <path id="Pfad_228" data-name="Pfad 228" class="cls-3" d="M81.027,11.99a3.983,3.983,0,1,1-3.983-3.983A3.983,3.983,0,0,1,81.027,11.99Zm-.6,30.887H73.617V19.4h6.808Z" transform="translate(-42.599 -7.684)"/>
            <path id="Pfad_229" data-name="Pfad 229" class="cls-3" d="M91.489,18.223H98.2v5.742H91.489v8.9a2.98,2.98,0,0,0,3.242,3.195,5.982,5.982,0,0,0,3.01-.7l1.714,5.371a10.186,10.186,0,0,1-5.371,1.435c-5.742,0-9.4-3.288-9.4-9.215V23.966H80.462V18.223h4.207V10.444h6.82Z" transform="translate(-39.028 -6.508)"/>
            <path id="Pfad_230" data-name="Pfad 230" class="cls-3" d="M123.048,14.774H111.977V42.606h-7.039V14.774H93.921V8.57h29.127Z" transform="translate(-32.533 -7.412)"/>
            <path id="Pfad_231" data-name="Pfad 231" class="cls-3" d="M133.969,39.17h-6.112l-.325-2.547a7.948,7.948,0,0,1-6.806,3.01c-5.558,0-8.474-4.03-8.474-10.327V15.691h6.808V28.935c0,2.547,1.3,4.307,3.611,4.307a5.235,5.235,0,0,0,4.492-2.778V15.691h6.806Z" transform="translate(-23.688 -3.976)"/>
            <path id="Pfad_232" data-name="Pfad 232" class="cls-3" d="M137.892,21.634a8.369,8.369,0,0,1,6.523-2.593c6.252,0,10.465,5.189,10.465,12.225s-4.2,12.179-10.459,12.179a8.287,8.287,0,0,1-6.9-3.057l-.325,2.593h-6.113V7.789h6.808Zm0,6.3V34.6a5.445,5.445,0,0,0,4.863,2.918c3.1,0,5.279-2.408,5.279-6.252,0-3.89-2.176-6.3-5.279-6.3A5.485,5.485,0,0,0,137.892,27.932Z" transform="translate(-14.601 -7.789)"/>
            <path id="Pfad_233" data-name="Pfad 233" class="cls-3" d="M171.968,27.278v2.176H156.086c.139,3.01,1.991,4.723,5.371,4.723a6.247,6.247,0,0,0,5.14-2.408l4.683,3.8a12.2,12.2,0,0,1-9.955,4.215,11.509,11.509,0,0,1-12.087-12.133c0-7.039,4.815-12.271,11.808-12.271C168.4,15.378,171.968,20.842,171.968,27.278Zm-15.882-2.129h9.168a4.354,4.354,0,0,0-4.448-4.631,4.578,4.578,0,0,0-4.72,4.631Z" transform="translate(-5.849 -4.125)"/>
          </g>
        </g>
      </g>
    </g>
  </g>
</svg>
